# xmcd CD database file
#
# Track frame offsets:
#	150
#	12647
#	23547
#	36876
#	59722
#	76426
#	92181
#	109721
#	153561
#	166323
#
# Disc length: 2363 seconds
#
# Revision: 0
# Processed by: cddbd v1.5.2PL0 Copyright (c) Steve Scherf et al.
# Submitted via: CDex 1.51
#
DISCID=7b09390a
DTITLE=Various Artist - Jazz Divas Disc 3
DYEAR=2005
DGENRE=Jazz
TTITLE0=Billie Holiday - Bille's Blues
TTITLE1=Ella Fitzgerald - Flying Home
TTITLE2=Lena Horne - The Lady Is a Tramp
TTITLE3=Eartha Kit - Life Made Me Beautiful at Forty
TTITLE4=Carmen McCrae - Mr. Magic
TTITLE5=Della Reese - When I Fall in Love
TTITLE6=Sarah Vaughan - When Sunny Gets Blue
TTITLE7=Dinah Washington - Lover Come Back to Me
TTITLE8=Pearl Bailey - Zing! Went the Strings of My Heart
TTITLE9=Ella Fitzgerald - Than Old Black Magic
EXTD=YEAR: 2005
EXTT0=
EXTT1=
EXTT2=
EXTT3=
EXTT4=
EXTT5=
EXTT6=
EXTT7=
EXTT8=
EXTT9=
PLAYORDER=
